<svg width="100" height="100" viewBox="0 0 100 100" fill="none" xmlns="http://www.w3.org/2000/svg">
<path d="M40.4167 4.12497C27.7084 6.95831 17.2917 14 10.1251 24.6666C-2.41659 43.4583 0.0834134 68.6666 16.0834 84.75C20.8751 89.5833 28.1667 94.25 33.6667 96.0416C35.7084 96.7083 35.9584 96.7083 36.8751 96.0833C37.8751 95.4166 37.9167 95.25 37.9167 90.4583V85.5416L34.2501 85.75C29.9584 85.9583 26.6251 85.2083 24.6251 83.5C23.9167 82.9166 22.5417 80.9166 21.5834 79.0833C20.0001 76 18.8334 74.5833 15.5834 71.7083C14.5001 70.75 14.4584 70.7083 15.2084 70.1666C17.0001 68.8333 20.6251 70.125 22.9167 72.875C26.9167 77.75 28.4584 79.0416 30.7501 79.5416C32.7917 79.9583 34.6667 79.7916 37.5001 78.9583C37.8751 78.8333 38.3751 77.9583 38.6251 76.9583C38.8751 76 39.5417 74.5416 40.0834 73.75L41.0834 72.2916L37.7084 71.625C30.6251 70.1666 26.2501 67.625 23.3751 63.2916C20.7084 59.2916 19.8334 55.8333 19.7917 49.375C19.7917 43.2916 20.4584 40.7916 23.0834 37.375C24.2501 35.875 24.3751 35.4166 24.0417 34.5416C23.4167 33.0416 23.5834 26.7083 24.2501 24.7916C24.7917 23.375 25.0834 23.125 26.2084 23C28.0834 22.7916 31.5834 24 35.1251 26L38.1667 27.75L40.8334 27.125C44.6251 26.25 56.0001 26.2916 59.4167 27.125L62.0001 27.7916L64.4167 26.3333C67.6251 24.4166 71.7084 22.9166 73.7501 22.9166C75.3751 22.9166 75.3751 22.9583 76.0417 25.0833C76.7501 27.5416 76.8751 32 76.2501 34.125C75.9167 35.375 76.0001 35.75 76.9167 36.9583C81.4584 42.9583 81.9584 52.9166 78.1251 61.0833C75.5417 66.4583 70.0834 70.2083 62.7501 71.5833L59.2501 72.25L60.5417 74.5416L61.8751 76.875L62.0001 86.1666L62.1667 95.4583L63.2084 96.125C64.1667 96.75 64.3751 96.75 66.3751 96.0416C69.7084 94.9166 75.4167 91.8333 78.5417 89.4583C97.1251 75.5416 103.125 50.5833 92.8334 29.8333C86.7917 17.625 75.3751 8.24997 62.2917 4.74997C56.5834 3.24997 45.8334 2.91663 40.4167 4.12497Z" fill="black"/>
</svg>
